# xmcd
#
# Track frame offsets:
#	150
#	15852
#	35131
#	48670
#	66305
#	84561
#	100784
#	118739
#	138877
#	156422
#	175052
#	192062
#	212252
#	228214
#	242658
#	257952
#	279592
#	297995
#	314350
#
# Disc length: 4433 seconds
#
# Revision: 1
# Processed by: cddbd v1.5.2PL0 Copyright (c) Steve Scherf et al.
# Submitted via: EasyCDDAExtractor 12.0.4.1
#
DISCID=0b114f13
DTITLE=asd - 江蕙
DYEAR=1900
DGENRE=Acid
TTITLE0=曲目標題 1
TTITLE1=曲目標題 2
TTITLE2=曲目標題 3
TTITLE3=曲目標題 4
TTITLE4=曲目標題 5
TTITLE5=曲目標題 6
TTITLE6=曲目標題 7
TTITLE7=曲目標題 8
TTITLE8=曲目標題 9
TTITLE9=曲目標題 10
TTITLE10=曲目標題 11
TTITLE11=曲目標題 12
TTITLE12=曲目標題 13
TTITLE13=曲目標題 14
TTITLE14=曲目標題 15
TTITLE15=曲目標題 16
TTITLE16=曲目標題 17
TTITLE17=曲目標題 18
TTITLE18=曲目標題 19
EXTD=
EXTT0=
EXTT1=
EXTT2=
EXTT3=
EXTT4=
EXTT5=
EXTT6=
EXTT7=
EXTT8=
EXTT9=
EXTT10=
EXTT11=
EXTT12=
EXTT13=
EXTT14=
EXTT15=
EXTT16=
EXTT17=
EXTT18=
PLAYORDER=
